<svg width="27" height="24" viewBox="0 0 27 24" fill="none" xmlns="http://www.w3.org/2000/svg">
<path d="M23 5.88892H3.44444C2.09441 5.88892 1 6.98333 1 8.33336V20.5556C1 21.9056 2.09441 23 3.44444 23H23C24.35 23 25.4444 21.9056 25.4444 20.5556V8.33336C25.4444 6.98333 24.35 5.88892 23 5.88892Z" stroke="#666B7C" stroke-width="1.5" stroke-linecap="round" stroke-linejoin="round"/>
<path d="M18.1112 23V3.44444C18.1112 2.79614 17.8536 2.17438 17.3952 1.71596C16.9368 1.25754 16.315 1 15.6667 1H10.7778C10.1295 1 9.50776 1.25754 9.04934 1.71596C8.59091 2.17438 8.33337 2.79614 8.33337 3.44444V23" stroke="#666B7C" stroke-width="1.5" stroke-linecap="round" stroke-linejoin="round"/>
</svg>
