<svg width="11" height="11" viewBox="0 0 11 11" fill="none" xmlns="http://www.w3.org/2000/svg">
<path d="M4.4065 5.70703L3.034 7.07953" stroke="#283054" stroke-width="0.8" stroke-miterlimit="10" stroke-linecap="round" stroke-linejoin="round"/>
<path d="M3.04749 5.72046L4.41999 7.09296" stroke="#283054" stroke-width="0.8" stroke-miterlimit="10" stroke-linecap="round" stroke-linejoin="round"/>
<path d="M6.18854 6.3999H6.19304" stroke="#283054" stroke-width="0.8" stroke-miterlimit="10" stroke-linecap="round" stroke-linejoin="round"/>
<path d="M7.96149 6.3999H7.96599" stroke="#283054" stroke-width="0.8" stroke-miterlimit="10" stroke-linecap="round" stroke-linejoin="round"/>
<path d="M7.07501 7.29098V7.28198" stroke="#283054" stroke-width="0.8" stroke-miterlimit="10" stroke-linecap="round" stroke-linejoin="round"/>
<path d="M7.07501 5.51803V5.50903" stroke="#283054" stroke-width="0.8" stroke-miterlimit="10" stroke-linecap="round" stroke-linejoin="round"/>
<path d="M4.15 10H6.85C9.1 10 10 9.10005 10 6.85005V5.95005C10 3.70005 9.1 2.80005 6.85 2.80005H4.15C1.9 2.80005 1 3.70005 1 5.95005V6.85005C1 9.10005 1.9 10 4.15 10Z" stroke="#283054" stroke-width="0.8" stroke-linecap="round" stroke-linejoin="round"/>
<path d="M5.95452 1L5.95002 1.4545C5.94552 1.702 5.74752 1.9 5.50002 1.9H5.48652C5.23902 1.9 5.04102 2.1025 5.04102 2.35C5.04102 2.5975 5.24352 2.8 5.49102 2.8H5.94102" stroke="#283054" stroke-width="0.8" stroke-linecap="round" stroke-linejoin="round"/>
</svg>
