<svg width="11" height="9" viewBox="0 0 11 9" fill="none" xmlns="http://www.w3.org/2000/svg">
<path d="M9.81527 0.850528C9.56687 0.602016 9.27194 0.404879 8.94734 0.270378C8.62274 0.135878 8.27481 0.0666504 7.92345 0.0666504C7.57208 0.0666504 7.22415 0.135878 6.89955 0.270378C6.57495 0.404879 6.28002 0.602016 6.03163 0.850528L5.51612 1.36604L5.00061 0.850528C4.49887 0.348786 3.81836 0.0669105 3.10879 0.0669105C2.39922 0.0669105 1.71871 0.348786 1.21697 0.850528C0.715225 1.35227 0.43335 2.03278 0.43335 2.74235C0.43335 3.45192 0.715225 4.13243 1.21697 4.63417L1.73248 5.14968L5.51612 8.93332L9.29976 5.14968L9.81527 4.63417C10.0638 4.38577 10.2609 4.09085 10.3954 3.76624C10.5299 3.44164 10.5991 3.09371 10.5991 2.74235C10.5991 2.39098 10.5299 2.04306 10.3954 1.71845C10.2609 1.39385 10.0638 1.09892 9.81527 0.850528V0.850528Z" fill="#DE0000"/>
</svg>
