<svg width="24" height="22" viewBox="0 0 24 22" fill="none" xmlns="http://www.w3.org/2000/svg">
<path d="M1 1H7.66667C8.84541 1 9.97587 1.46825 10.8094 2.30175C11.6429 3.13524 12.1111 4.2657 12.1111 5.44444V21C12.1111 20.1159 11.7599 19.2681 11.1348 18.643C10.5097 18.0179 9.66183 17.6667 8.77778 17.6667H1V1Z" stroke="#01002C" stroke-width="1.5" stroke-linecap="round" stroke-linejoin="round"/>
<path d="M23.1111 1H16.4444C15.2657 1 14.1352 1.46825 13.3017 2.30175C12.4683 3.13524 12 4.2657 12 5.44444V21C12 20.1159 12.3512 19.2681 12.9763 18.643C13.6014 18.0179 14.4493 17.6667 15.3333 17.6667H23.1111V1Z" stroke="#01002C" stroke-width="1.5" stroke-linecap="round" stroke-linejoin="round"/>
</svg>
