<svg width="24" height="24" viewBox="0 0 24 24" fill="none" xmlns="http://www.w3.org/2000/svg">
<path d="M8.33337 19.4815V3.59264L23 1.14819V17.0371" stroke="#666B7C" stroke-width="1.5" stroke-linecap="round" stroke-linejoin="round"/>
<path d="M4.66667 23.148C6.69171 23.148 8.33333 21.5064 8.33333 19.4814C8.33333 17.4563 6.69171 15.8147 4.66667 15.8147C2.64162 15.8147 1 17.4563 1 19.4814C1 21.5064 2.64162 23.148 4.66667 23.148Z" stroke="#666B7C" stroke-width="1.5" stroke-linecap="round" stroke-linejoin="round"/>
<path d="M19.3333 20.7037C21.3583 20.7037 23 19.0621 23 17.037C23 15.012 21.3583 13.3704 19.3333 13.3704C17.3082 13.3704 15.6666 15.012 15.6666 17.037C15.6666 19.0621 17.3082 20.7037 19.3333 20.7037Z" stroke="#666B7C" stroke-width="1.5" stroke-linecap="round" stroke-linejoin="round"/>
</svg>
