<svg width="301" height="300" viewBox="0 0 301 300" fill="none" xmlns="http://www.w3.org/2000/svg">
<path d="M150.276 300C233.271 300 300.552 261.154 300.552 213.234C300.552 165.314 233.271 126.468 150.276 126.468C67.281 126.468 0 165.314 0 213.234C0 261.154 67.281 300 150.276 300Z" fill="#F5F5F5"/>
<path d="M209.419 184.729L260.036 213.947C260.674 214.318 261.398 214.513 262.135 214.513C262.873 214.513 263.597 214.318 264.235 213.947L292.397 197.676C292.587 197.566 292.744 197.408 292.854 197.218C292.964 197.028 293.021 196.812 293.021 196.593C293.021 196.373 292.964 196.158 292.854 195.968C292.744 195.777 292.587 195.619 292.397 195.509L241.793 166.365C241.157 165.999 240.435 165.806 239.7 165.806C238.966 165.806 238.244 165.999 237.607 166.365L209.426 182.556C209.235 182.666 209.077 182.824 208.967 183.015C208.857 183.205 208.799 183.421 208.798 183.641C208.798 183.861 208.855 184.077 208.963 184.268C209.072 184.459 209.229 184.618 209.419 184.729V184.729Z" fill="#E0E0E0"/>
<path d="M169.589 173.862L47.8377 244.323C46.8462 244.898 45.7214 245.204 44.5752 245.21C43.4289 245.216 42.301 244.922 41.3037 244.357L9.67648 226.457C9.34795 226.268 9.07501 225.996 8.88521 225.669C8.6954 225.341 8.59546 224.969 8.59546 224.59C8.59546 224.211 8.6954 223.839 8.88521 223.511C9.07501 223.183 9.34795 222.911 9.67648 222.722L131.199 152.537C132.188 151.969 133.307 151.666 134.447 151.659C135.587 151.652 136.71 151.941 137.706 152.497L169.562 170.349C169.874 170.523 170.134 170.776 170.317 171.083C170.499 171.391 170.596 171.741 170.599 172.098C170.602 172.455 170.51 172.806 170.332 173.116C170.155 173.426 169.898 173.683 169.589 173.862V173.862Z" fill="#E0E0E0"/>
<path d="M189.077 244.578C207.529 244.578 222.487 235.941 222.487 225.286C222.487 214.631 207.529 205.993 189.077 205.993C170.625 205.993 155.666 214.631 155.666 225.286C155.666 235.941 170.625 244.578 189.077 244.578Z" fill="#E0E0E0"/>
<path d="M261.341 236.382C267.774 236.382 272.99 233.369 272.99 229.653C272.99 225.937 267.774 222.924 261.341 222.924C254.908 222.924 249.693 225.937 249.693 229.653C249.693 233.369 254.908 236.382 261.341 236.382Z" fill="#E0E0E0"/>
<path d="M261.718 123.628L261.732 212.433L290.492 195.812V107.095L261.718 123.628Z" fill="#E6E6E6"/>
<path d="M212.871 184.225L261.732 212.433V123.709L212.885 95.5879L212.871 184.225Z" fill="#EBEBEB"/>
<path d="M212.871 95.5004L261.732 123.709L290.492 107.095L241.652 78.9668L212.871 95.5004Z" fill="#F5F5F5"/>
<path d="M218.598 127.976L255.723 149.415C255.885 149.508 256.068 149.557 256.255 149.556C256.442 149.556 256.626 149.507 256.788 149.414C256.95 149.32 257.085 149.186 257.179 149.025C257.273 148.863 257.323 148.68 257.324 148.493V129.658C257.321 129.193 257.196 128.736 256.959 128.336C256.723 127.935 256.384 127.604 255.978 127.377L218.914 106.018C218.751 105.925 218.567 105.876 218.379 105.877C218.192 105.877 218.008 105.927 217.846 106.021C217.683 106.115 217.549 106.25 217.455 106.413C217.362 106.575 217.312 106.759 217.312 106.947V125.695C217.308 126.154 217.425 126.607 217.65 127.007C217.876 127.407 218.202 127.741 218.598 127.976V127.976Z" fill="#FAFAFA"/>
<path d="M240.575 123.258C240.447 123.257 240.322 123.223 240.212 123.158L233.657 119.389C233.507 119.283 233.401 119.124 233.361 118.944C233.321 118.764 233.35 118.576 233.442 118.416C233.534 118.256 233.682 118.136 233.857 118.079C234.033 118.023 234.223 118.034 234.391 118.111L240.945 121.886C241.075 121.971 241.174 122.095 241.229 122.24C241.284 122.385 241.291 122.544 241.25 122.693C241.209 122.843 241.121 122.975 241 123.072C240.879 123.169 240.73 123.225 240.575 123.232V123.258Z" fill="#E0E0E0"/>
<path d="M218.598 154.273L255.722 175.706C255.885 175.798 256.068 175.847 256.255 175.847C256.442 175.847 256.626 175.798 256.788 175.704C256.95 175.611 257.085 175.477 257.179 175.315C257.273 175.154 257.323 174.971 257.324 174.784V155.942C257.321 155.477 257.195 155.021 256.958 154.62C256.722 154.22 256.384 153.889 255.978 153.661L218.914 132.349C218.752 132.257 218.568 132.208 218.381 132.208C218.194 132.208 218.01 132.257 217.848 132.351C217.686 132.444 217.552 132.578 217.458 132.74C217.364 132.901 217.313 133.084 217.312 133.271V152.019C217.313 152.474 217.432 152.92 217.658 153.315C217.883 153.711 218.207 154.04 218.598 154.273Z" fill="#FAFAFA"/>
<path d="M240.575 149.549C240.448 149.548 240.323 149.516 240.212 149.455L233.657 145.68C233.507 145.574 233.401 145.415 233.361 145.235C233.321 145.055 233.35 144.867 233.442 144.707C233.534 144.547 233.682 144.427 233.857 144.371C234.033 144.314 234.223 144.325 234.391 144.402L240.945 148.177C241.075 148.262 241.174 148.386 241.229 148.531C241.284 148.676 241.291 148.835 241.25 148.984C241.209 149.134 241.121 149.266 241 149.363C240.879 149.46 240.73 149.516 240.575 149.523V149.549Z" fill="#E0E0E0"/>
<path d="M218.598 180.564L255.723 201.997C255.885 202.09 256.068 202.138 256.255 202.138C256.442 202.138 256.626 202.089 256.788 201.996C256.95 201.902 257.085 201.768 257.179 201.607C257.273 201.445 257.323 201.262 257.324 201.075V182.233C257.321 181.768 257.195 181.312 256.958 180.911C256.722 180.511 256.384 180.18 255.978 179.952L218.914 158.594C218.752 158.501 218.568 158.452 218.381 158.452C218.194 158.452 218.01 158.502 217.848 158.595C217.686 158.688 217.552 158.822 217.458 158.984C217.364 159.145 217.313 159.329 217.312 159.515V178.27C217.306 178.731 217.422 179.186 217.648 179.589C217.873 179.992 218.201 180.328 218.598 180.564Z" fill="#FAFAFA"/>
<path d="M240.575 175.84C240.448 175.842 240.322 175.81 240.212 175.746L233.658 171.971C233.574 171.923 233.501 171.859 233.442 171.783C233.383 171.706 233.34 171.619 233.315 171.526C233.29 171.433 233.284 171.335 233.296 171.24C233.309 171.144 233.34 171.052 233.388 170.969C233.436 170.885 233.501 170.812 233.577 170.753C233.654 170.694 233.741 170.652 233.835 170.627C233.928 170.603 234.025 170.597 234.121 170.611C234.216 170.624 234.308 170.657 234.391 170.706L240.945 174.474C241.029 174.523 241.102 174.587 241.161 174.663C241.22 174.74 241.263 174.827 241.288 174.92C241.313 175.013 241.319 175.11 241.307 175.206C241.294 175.301 241.263 175.394 241.214 175.477C241.15 175.59 241.057 175.683 240.945 175.747C240.832 175.811 240.705 175.843 240.575 175.84V175.84Z" fill="#E0E0E0"/>
<path d="M243.415 34.2031V57.937L263.972 69.8005V46.0667L243.415 34.2031Z" fill="#FAFAFA"/>
<path d="M245.642 35.4822L263.999 46.0672V67.2305L245.669 56.6522V35.4822H245.642ZM244.552 33.5576L243.442 34.2305V57.9644L263.999 69.801L265.11 69.1281V45.4279L244.525 33.5576H244.552Z" fill="#E0E0E0"/>
<path d="M244.525 36.1218L262.855 46.7068V67.8701L244.525 57.2851V36.1218ZM243.415 34.1973V57.9311L263.999 69.8014V46.0676L243.415 34.204V34.1973Z" fill="#EBEBEB"/>
<path d="M246.43 52.5066L261.981 61.4834L257.385 49.5323L254.208 53.3074L250.951 48.6777L246.43 52.5066Z" fill="#E0E0E0"/>
<path d="M251.826 45.0514C251.853 45.5438 251.995 46.0229 252.242 46.4497C252.489 46.8765 252.833 47.239 253.246 47.5076C254.027 47.9585 254.666 47.5884 254.666 46.6866C254.639 46.1946 254.496 45.7159 254.249 45.2892C254.002 44.8626 253.659 44.4999 253.246 44.2305C252.459 43.7796 251.826 44.143 251.826 45.0514Z" fill="#E0E0E0"/>
<path d="M270.13 62.9307V81.8397L286.502 91.2942V72.3852L270.13 62.9307Z" fill="#FAFAFA"/>
<path d="M271.899 63.9596L286.502 72.3845V89.2815L271.899 80.8499V64.0269V63.9596ZM271.011 62.4859L270.13 62.9973V81.9063L286.502 91.3003L287.39 90.7889V71.8798L271.011 62.459V62.4859Z" fill="#E0E0E0"/>
<path d="M271.011 64.4717L285.614 72.8966V89.7599L271.011 81.3283V64.4717ZM270.13 62.9307V81.8397L286.502 91.3009V72.3919L270.13 62.971V62.9307Z" fill="#EBEBEB"/>
<path d="M272.532 77.5122L284.914 84.6653L281.26 75.1435L278.723 78.1582L276.132 74.4639L272.532 77.5122Z" fill="#E0E0E0"/>
<path d="M276.825 71.5773C276.847 71.9695 276.96 72.3511 277.157 72.6913C277.353 73.0315 277.627 73.3207 277.956 73.5355C278.582 73.8921 279.086 73.6028 279.086 72.8626C279.066 72.4701 278.953 72.0881 278.756 71.7477C278.56 71.4074 278.285 71.1184 277.956 70.9044C277.33 70.5612 276.825 70.8573 276.825 71.5773Z" fill="#E0E0E0"/>
<path d="M262.028 212.507C262.028 212.507 254.868 205.515 258.946 193.806C261.227 187.245 268.791 182.427 273.077 181.97C271.651 183.665 270.514 185.584 269.713 187.649L264.289 191.256L269.275 189.695L268.212 193.961C268.212 193.961 263.576 196.767 262.889 197.38L267.889 196.074C267.889 196.074 267.526 208.16 262.028 212.507Z" fill="#172E93"/>
<path opacity="0.4" d="M262.028 212.507C262.028 212.507 254.868 205.515 258.946 193.806C261.227 187.245 268.791 182.427 273.077 181.97C271.651 183.665 270.514 185.584 269.713 187.649L264.289 191.256L269.275 189.695L268.212 193.961C268.212 193.961 263.576 196.767 262.889 197.38L267.889 196.074C267.889 196.074 267.526 208.16 262.028 212.507Z" fill="black"/>
<path d="M262.028 212.507C262.028 212.507 258.32 197.877 263.804 189.345C263.804 189.345 257.378 196.875 262.028 212.507Z" fill="white"/>
<path d="M270.217 214.486L261.469 214.378H261.382L252.634 214.486C252.634 214.486 252.533 225.252 255.857 229.667C256.779 230.838 258.926 231.685 261.436 231.685C263.946 231.685 266.106 230.858 267.021 229.667C270.318 225.266 270.217 214.486 270.217 214.486Z" fill="#37474F"/>
<path d="M270.217 214.485C270.217 217.096 266.281 219.195 261.416 219.195C256.55 219.195 252.614 217.076 252.614 214.485C252.614 211.894 256.557 209.774 261.416 209.774C266.274 209.774 270.217 211.874 270.217 214.485Z" fill="#455A64"/>
<path d="M261.416 213.233C264.444 213.233 267.008 214.202 267.916 215.548C268.137 215.237 268.259 214.866 268.266 214.485C268.266 212.621 265.197 211.12 261.416 211.12C257.634 211.12 254.565 212.634 254.565 214.485C254.571 214.867 254.696 215.239 254.922 215.548C255.824 214.202 258.387 213.233 261.416 213.233Z" fill="#263238"/>
<path d="M261.416 213.233C258.387 213.233 255.824 214.202 254.922 215.548C255.824 216.894 258.387 217.87 261.416 217.87C264.444 217.87 267.007 216.894 267.916 215.548C267.007 214.202 264.444 213.233 261.416 213.233Z" fill="#E0E0E0"/>
<path d="M261.523 216.133C261.523 216.133 258.159 216.006 255.225 211.497C254.02 209.64 253.441 208.664 253.441 208.664L258.152 208.307L252.856 206.962L250.353 203.133L254.747 202.803C252.935 202.171 251.048 201.78 249.135 201.639C249.135 201.639 245.097 194.479 243.893 193.456C246.97 193.643 249.978 194.447 252.738 195.819C255.498 197.191 257.955 199.104 259.962 201.444C266.604 209.323 262.512 216.335 261.523 216.133Z" fill="#172E93"/>
<path d="M261.523 216.134C261.523 216.134 263.65 203.349 250.084 195.664C250.104 195.664 264.161 202.42 261.523 216.134Z" fill="white"/>
<path d="M261.523 216.133C261.523 216.133 264.598 216.335 267.647 212.547C268.905 210.979 269.517 210.151 269.517 210.151L265.285 209.391L270.19 208.718L272.808 205.495L268.871 204.788C270.566 204.387 272.306 204.213 274.046 204.27C274.046 204.27 278.38 198.214 279.544 197.379C276.763 197.255 273.985 197.689 271.375 198.655C268.764 199.621 266.373 201.1 264.343 203.005C257.587 209.512 260.635 216.221 261.523 216.133Z" fill="#172E93"/>
<path opacity="0.2" d="M261.523 216.133C261.523 216.133 264.598 216.335 267.647 212.547C268.905 210.979 269.517 210.151 269.517 210.151L265.285 209.391L270.19 208.718L272.808 205.495L268.871 204.788C270.566 204.387 272.306 204.213 274.046 204.27C274.046 204.27 278.38 198.214 279.544 197.379C276.763 197.255 273.985 197.689 271.375 198.655C268.764 199.621 266.373 201.1 264.343 203.005C257.587 209.512 260.635 216.221 261.523 216.133Z" fill="black"/>
<path d="M261.523 216.134C261.523 216.134 260.81 204.405 273.757 198.739C273.757 198.739 260.44 203.51 261.523 216.134Z" fill="white"/>
<path d="M127.929 52.8437L124.867 51.5989L124.557 51.471H124.524C123.975 51.2728 123.389 51.1972 122.808 51.2495C122.226 51.3018 121.664 51.4808 121.159 51.7738L16.0895 112.417C13.8814 113.69 12.0477 115.522 10.773 117.728C9.49829 119.935 8.82767 122.439 8.82868 124.987V216.464C8.82921 217.436 9.08566 218.391 9.57227 219.233C10.0589 220.074 10.7585 220.773 11.6007 221.259C12.443 221.744 13.3983 222 14.3705 221.999C15.3427 221.998 16.2976 221.742 17.1392 221.255L122.31 160.538C123.81 159.671 125.056 158.424 125.922 156.922C126.788 155.421 127.243 153.718 127.242 151.985V55.2999C127.244 54.6075 127.068 53.9262 126.731 53.3215L127.929 52.8437Z" fill="#172E93"/>
<path opacity="0.3" d="M127.929 52.8437L124.867 51.5989L124.557 51.471H124.524C123.975 51.2728 123.389 51.1972 122.808 51.2495C122.226 51.3018 121.664 51.4808 121.159 51.7738L16.0895 112.417C13.8814 113.69 12.0477 115.522 10.773 117.728C9.49829 119.935 8.82767 122.439 8.82868 124.987V216.464C8.82921 217.436 9.08566 218.391 9.57227 219.233C10.0589 220.074 10.7585 220.773 11.6007 221.259C12.443 221.744 13.3983 222 14.3705 221.999C15.3427 221.998 16.2976 221.742 17.1392 221.255L122.31 160.538C123.81 159.671 125.056 158.424 125.922 156.922C126.788 155.421 127.243 153.718 127.242 151.985V55.2999C127.244 54.6075 127.068 53.9262 126.731 53.3215L127.929 52.8437Z" fill="black"/>
<path d="M130.028 56.4032V153.122C130.029 154.855 129.573 156.558 128.706 158.058C127.839 159.559 126.591 160.804 125.089 161.668L19.9185 222.392C19.076 222.877 18.1209 223.132 17.1489 223.131C16.1769 223.13 15.2222 222.874 14.3804 222.388C13.5386 221.902 12.8394 221.204 12.3528 220.362C11.8662 219.521 11.6093 218.566 11.6079 217.594V126.077C11.6085 123.569 12.26 121.105 13.4988 118.924V118.924C14.4371 117.307 15.7918 115.971 17.4219 115.055L126.051 52.332C127.105 52.3649 128.105 52.8031 128.843 53.5553C129.582 54.3074 130.001 55.3156 130.015 56.3695L130.028 56.4032Z" fill="#172E93"/>
<path opacity="0.1" d="M130.028 56.4032V153.122C130.029 154.855 129.573 156.558 128.706 158.058C127.839 159.559 126.591 160.804 125.089 161.668L19.9185 222.392C19.076 222.877 18.1209 223.132 17.1489 223.131C16.1769 223.13 15.2222 222.874 14.3804 222.388C13.5386 221.902 12.8394 221.204 12.3528 220.362C11.8662 219.521 11.6093 218.566 11.6079 217.594V126.077C11.6085 123.569 12.26 121.105 13.4988 118.924V118.924C14.4371 117.307 15.7918 115.971 17.4219 115.055L126.051 52.332C127.105 52.3649 128.105 52.8031 128.843 53.5553C129.582 54.3074 130.001 55.3156 130.015 56.3695L130.028 56.4032Z" fill="black"/>
<path d="M125.089 161.669L19.9184 222.393C19.1044 222.869 18.1813 223.127 17.2382 223.143C16.2952 223.158 15.3642 222.93 14.5351 222.48L77.3319 127.969L130.028 153.116C130.028 154.85 129.572 156.553 128.705 158.054C127.838 159.556 126.591 160.802 125.089 161.669V161.669Z" fill="#172E93"/>
<path opacity="0.2" d="M125.089 161.669L19.9184 222.393C19.1044 222.869 18.1813 223.127 17.2382 223.143C16.2952 223.158 15.3642 222.93 14.5351 222.48L77.3319 127.969L130.028 153.116C130.028 154.85 129.572 156.553 128.705 158.054C127.838 159.556 126.591 160.802 125.089 161.669V161.669Z" fill="black"/>
<path d="M128.258 53.0521L85.3733 142.759C84.5286 144.521 83.3292 146.09 81.85 147.368C80.3709 148.645 78.644 149.604 76.7774 150.183C74.9107 150.762 72.9446 150.95 71.0021 150.734C69.0597 150.519 67.1826 149.904 65.4885 148.93L13.4988 118.944C14.3863 117.368 15.6808 116.06 17.247 115.156L126.051 52.332C126.842 52.3508 127.609 52.6011 128.258 53.0521V53.0521Z" fill="#172E93"/>
<path d="M24.2924 90.1433L55.0986 72.3513V50.2998L32.7106 62.6411C30.1607 64.0447 28.0344 66.107 26.5536 68.6129C25.0728 71.1187 24.2919 73.9762 24.2924 76.8868V90.1433Z" fill="#172E93"/>
<path opacity="0.5" d="M24.2924 90.1433L55.0986 72.3513V50.2998L32.7106 62.6411C30.1607 64.0447 28.0344 66.107 26.5536 68.6129C25.0728 71.1187 24.2919 73.9762 24.2924 76.8868V90.1433Z" fill="white"/>
<path d="M151.622 4.74346L148.802 3.14864C145.222 1.07806 141.157 -0.00822603 137.02 4.69024e-05C132.884 0.00831983 128.823 1.11086 125.25 3.19575L37.1451 54.526C33.2342 56.8036 29.9891 60.0671 27.7338 63.9909C25.4785 67.9146 24.2919 72.3613 24.2923 76.8871C24.292 74.5621 24.9057 72.2783 26.0712 70.2666C27.2368 68.2549 28.9129 66.5867 30.93 65.4306C32.9472 64.2745 35.2339 63.6716 37.5588 63.6828C39.8837 63.6941 42.1645 64.319 44.1703 65.4946L47.8579 67.6546C51.6973 69.9019 54.8819 73.1146 57.0953 76.9736C59.3088 80.8326 60.474 85.2036 60.4752 89.6523V220.562L54.466 235.817L65.7508 228.946L156.467 176.311C159.689 174.443 162.363 171.76 164.221 168.532C166.079 165.304 167.055 161.644 167.052 157.92V31.5189C167.051 26.0953 165.625 20.7671 162.917 16.0679C160.209 11.3687 156.314 7.46352 151.622 4.74346V4.74346Z" fill="#172E93"/>
<path opacity="0.7" d="M151.622 4.74346L148.802 3.14864C145.222 1.07806 141.157 -0.00822603 137.02 4.69024e-05C132.884 0.00831983 128.823 1.11086 125.25 3.19575L37.1451 54.526C33.2342 56.8036 29.9891 60.0671 27.7338 63.9909C25.4785 67.9146 24.2919 72.3613 24.2923 76.8871C24.292 74.5621 24.9057 72.2783 26.0712 70.2666C27.2368 68.2549 28.9129 66.5867 30.93 65.4306C32.9472 64.2745 35.2339 63.6716 37.5588 63.6828C39.8837 63.6941 42.1645 64.319 44.1703 65.4946L47.8579 67.6546C51.6973 69.9019 54.8819 73.1146 57.0953 76.9736C59.3088 80.8326 60.474 85.2036 60.4752 89.6523V220.562L54.466 235.817L65.7508 228.946L156.467 176.311C159.689 174.443 162.363 171.76 164.221 168.532C166.079 165.304 167.055 161.644 167.052 157.92V31.5189C167.051 26.0953 165.625 20.7671 162.917 16.0679C160.209 11.3687 156.314 7.46352 151.622 4.74346V4.74346Z" fill="white"/>
<path d="M27.9463 223.919C27.9463 223.919 34.265 233.159 44.4194 236.22C55.3408 239.511 60.4752 232.27 60.4752 222.668V205.3L27.9463 223.919Z" fill="#172E93"/>
<path opacity="0.5" d="M27.9463 223.919C27.9463 223.919 34.265 233.159 44.4194 236.22C55.3408 239.511 60.4752 232.27 60.4752 222.668V205.3L27.9463 223.919Z" fill="white"/>
<path d="M80.1043 131.004C79.8861 131 79.6749 130.926 79.5028 130.792C79.3307 130.657 79.2071 130.471 79.1507 130.26C79.0944 130.049 79.1084 129.825 79.1907 129.623C79.2729 129.421 79.4188 129.251 79.6064 129.14L146.898 90.2718C147.128 90.1397 147.4 90.1042 147.656 90.173C147.911 90.2417 148.129 90.4092 148.261 90.6385C148.393 90.8679 148.429 91.1403 148.36 91.3958C148.291 91.6514 148.123 91.8691 147.894 92.0012L80.6023 130.869C80.4505 130.956 80.2791 131.002 80.1043 131.004Z" fill="white"/>
<path d="M80.1043 145.908C79.8854 145.907 79.6728 145.835 79.4993 145.702C79.3258 145.568 79.201 145.381 79.1444 145.17C79.0877 144.958 79.1022 144.734 79.1857 144.532C79.2692 144.33 79.4171 144.16 79.6063 144.051L146.898 105.176C147.128 105.044 147.4 105.008 147.656 105.077C147.911 105.146 148.129 105.314 148.261 105.543C148.393 105.772 148.428 106.045 148.36 106.3C148.291 106.556 148.123 106.773 147.894 106.906L80.6023 145.807C80.4474 145.882 80.2761 145.917 80.1043 145.908V145.908Z" fill="white"/>
<path d="M80.1043 160.807C79.8854 160.807 79.6728 160.734 79.4993 160.601C79.3258 160.467 79.201 160.28 79.1444 160.069C79.0877 159.858 79.1022 159.633 79.1857 159.431C79.2692 159.229 79.4171 159.06 79.6063 158.95L146.898 120.082C147.126 119.964 147.39 119.938 147.636 120.01C147.882 120.081 148.091 120.245 148.22 120.467C148.348 120.689 148.386 120.952 148.325 121.201C148.265 121.45 148.11 121.666 147.894 121.805L80.6023 160.672C80.4505 160.759 80.2791 160.805 80.1043 160.807Z" fill="white"/>
<path d="M80.1043 175.705C79.8854 175.705 79.6728 175.632 79.4993 175.499C79.3258 175.366 79.201 175.179 79.1444 174.967C79.0877 174.756 79.1022 174.532 79.1857 174.33C79.2692 174.127 79.4171 173.958 79.6063 173.848L146.898 134.98C147.126 134.862 147.39 134.836 147.636 134.908C147.882 134.98 148.091 135.144 148.22 135.366C148.348 135.588 148.386 135.851 148.325 136.1C148.265 136.349 148.11 136.565 147.894 136.703L80.6023 175.571C80.4518 175.661 80.2795 175.707 80.1043 175.705V175.705Z" fill="white"/>
<path d="M80.1043 190.604C79.8854 190.603 79.6728 190.531 79.4993 190.398C79.3258 190.264 79.201 190.077 79.1444 189.866C79.0877 189.654 79.1022 189.43 79.1857 189.228C79.2692 189.026 79.4171 188.857 79.6063 188.747L146.898 149.879C147.126 149.761 147.39 149.735 147.636 149.806C147.882 149.878 148.091 150.042 148.22 150.264C148.348 150.486 148.386 150.749 148.325 150.998C148.265 151.247 148.11 151.463 147.894 151.602L80.6023 190.469C80.4518 190.559 80.2795 190.606 80.1043 190.604V190.604Z" fill="white"/>
<path d="M124.295 179.985C124.12 179.986 123.948 179.941 123.797 179.853C123.645 179.766 123.52 179.639 123.434 179.487C123.306 179.26 123.273 178.992 123.341 178.74C123.408 178.489 123.572 178.274 123.797 178.141L146.912 164.777C147.139 164.659 147.404 164.633 147.65 164.705C147.896 164.777 148.105 164.941 148.233 165.162C148.362 165.384 148.399 165.647 148.339 165.897C148.278 166.146 148.124 166.362 147.908 166.5L124.793 179.857C124.641 179.942 124.469 179.986 124.295 179.985V179.985Z" fill="white"/>
<path d="M126.966 74.9087L107.573 86.106V76.5506C107.573 69.9089 111.61 62.1905 116.597 59.3104L117.942 58.5366C122.922 55.6565 126.966 58.7115 126.966 65.3532V74.9087Z" fill="#172E93"/>
<path d="M131.482 78.078L103.058 94.4905L107.573 84.0333L126.966 72.8359L131.482 78.078Z" fill="#172E93"/>
<path d="M117.303 62.0758C116.462 62.5603 115.782 62.17 115.782 61.201V57.4798C115.812 56.9526 115.965 56.4398 116.229 55.9827C116.493 55.5256 116.861 55.1372 117.303 54.8487C118.138 54.3642 118.817 54.7544 118.817 55.7234V59.4514C118.788 59.9768 118.635 60.4879 118.372 60.9437C118.109 61.3995 117.743 61.7872 117.303 62.0758V62.0758Z" fill="#172E93"/>
<path d="M114.04 89.5517C114.12 91.483 115.533 92.2434 117.27 91.2408C118.179 90.6459 118.942 89.8523 119.5 88.9198C120.059 87.9873 120.398 86.9402 120.493 85.8574L114.04 89.5517Z" fill="#172E93"/>
<path d="M212.871 60.4543C220.687 60.4543 227.023 54.1185 227.023 46.3028C227.023 38.4872 220.687 32.1514 212.871 32.1514C205.055 32.1514 198.72 38.4872 198.72 46.3028C198.72 54.1185 205.055 60.4543 212.871 60.4543Z" fill="#172E93"/>
<path d="M210.348 57.3047C210.348 57.3047 211.613 61.7998 206.492 65.9719C206.492 65.9719 214.378 65.1778 214.809 57.6815L210.348 57.3047Z" fill="#172E93"/>
<path d="M214.264 47.6088H211.222L210.462 40.3076H215.024L214.264 47.6088ZM212.743 52.3192C212.463 52.3384 212.182 52.3008 211.917 52.2088C211.652 52.1167 211.408 51.9722 211.2 51.7837C210.992 51.5952 210.824 51.3667 210.707 51.1118C210.589 50.857 210.524 50.581 210.516 50.3005C210.576 49.7519 210.837 49.245 211.248 48.8767C211.659 48.5085 212.191 48.3049 212.743 48.3049C213.295 48.3049 213.827 48.5085 214.238 48.8767C214.649 49.245 214.91 49.7519 214.971 50.3005C214.96 50.5798 214.894 50.8543 214.776 51.1076C214.657 51.3609 214.489 51.5878 214.282 51.7749C214.074 51.962 213.831 52.1054 213.566 52.1965C213.302 52.2877 213.022 52.3249 212.743 52.3058V52.3192Z" fill="white"/>
<path d="M184.932 101.005C183.475 100.892 182.013 101.14 180.675 101.727C179.337 102.314 178.164 103.222 177.26 104.37C174.266 108.313 167.927 117.64 167.927 117.64C167.927 117.64 165.276 114.699 163.539 112.633C161.803 110.567 160.175 108.818 160.175 108.818C159.946 107.706 159.776 106.583 159.663 105.453C159.515 103.852 159.3 102.761 158.129 101.665C156.958 100.568 156.063 99.5382 155.969 98.7038C155.875 97.8693 155.296 97.0349 154.556 97.8895C153.816 98.7441 153.883 101.369 155.431 103.118C155.431 103.118 152.665 101.833 151.393 100.325C150.122 98.8182 148.48 96.1938 147.753 96.9205C147.026 97.6473 145.633 105.473 147.753 107.216C149.873 108.959 155.115 111.927 155.115 111.927C155.115 111.927 161.965 128.696 166.783 128.696C171.601 128.696 179.568 116.301 179.568 116.301L184.932 101.005Z" fill="#FFA8A7"/>
<path d="M176.379 188.551L177.866 211.303C177.866 211.303 179.212 213.712 181.803 213.712L184.158 211.141C184.126 208.098 184.38 205.059 184.918 202.064C185.793 197.468 187.489 190.745 187.98 186.862L176.379 188.551Z" fill="#FFA8A7"/>
<path d="M177.718 137.154C177.718 137.154 176.534 144.805 175.948 152.247C175.484 158.182 175.181 166.412 175.073 169.501C175.048 170.309 175.066 171.117 175.127 171.923L176.379 188.551C176.379 188.551 183.734 191.781 187.993 186.862C187.993 186.862 188.512 182.098 187.771 178.787C187.338 176.697 187.391 174.535 187.926 172.468L192.536 153.95V136.992L177.718 137.154Z" fill="#37474F"/>
<path d="M181.291 143.5C181.602 144.86 182.28 146.109 183.25 147.111C184.221 148.113 185.447 148.831 186.796 149.186L189.548 165.942L193.585 151.259V143.5H181.291Z" fill="#263238"/>
<path d="M195.597 191.943L200.247 217.588H205.274C205.274 217.588 207.178 195.981 207.077 190.086L195.597 191.943Z" fill="#FFA8A7"/>
<path d="M180.066 136.985C180.066 136.985 179.084 146.884 187.94 147.752L192.536 177.233L195.597 191.936C195.597 191.936 202.771 196.613 207.077 190.079C207.077 190.079 207.515 182.677 205.731 177.576C205.266 176.251 205.074 174.845 205.166 173.444C205.664 166.217 207.037 145.013 206.364 140.316L201.936 134.522L180.066 136.985Z" fill="#37474F"/>
<path d="M196.19 102.068H200.685L203.693 117.081L201.714 123.508C201.296 124.84 201.392 126.28 201.983 127.545C203.329 130.479 205.826 136.212 206.371 140.331C205.112 140.423 203.852 140.172 202.725 139.604C201.598 139.036 200.646 138.173 199.971 137.107C199.971 137.107 196.196 142.08 187.011 142.08C182.556 142.08 178.936 138.803 177.718 137.161L179.367 129.719C179.503 129.114 179.553 128.493 179.515 127.875C179.427 126.334 179.259 123.164 179.299 120.755C179.299 120.755 175.033 119.06 176.13 113.811C177.227 108.562 184.932 101.025 184.932 101.025L188.236 101.153L196.19 102.068Z" fill="#172E93"/>
<path d="M185.349 73.1321C185.349 73.1321 179.898 71.2412 178.566 76.8197C177.233 82.3981 181.338 87.8151 175.201 89.6724C175.201 89.6724 178.822 92.6871 182.011 87.0547L184.703 98.4944C184.703 98.4944 184.703 99.1202 183.747 99.598C183.747 99.598 199.224 103.043 202.205 95.3182C202.616 95.7628 202.896 96.3122 203.015 96.9058C203.134 97.4995 203.087 98.1143 202.878 98.6828C202.878 98.6828 207.447 96.8322 206.162 90.9173C206.162 90.9173 209.776 90.8164 210.637 87.8757C210.637 87.8757 204.857 88.1516 204.89 81.7723C204.931 74.4039 201.055 75.4738 201.055 75.4738C201.055 75.4738 196.311 68.4216 185.349 73.1321Z" fill="#455A64"/>
<path d="M188.236 96.214V101.133C188.236 101.133 183.142 106.799 188.108 107.25C193.074 107.701 196.183 102.068 196.183 102.068V91.665L188.236 96.214Z" fill="#FFA8A7"/>
<path d="M196.102 90.0227V90.3053C194.332 97.3037 189.723 98.8245 188.236 99.1811L188.182 88.3539L195.88 88.3135L196.102 90.0227Z" fill="#F28F8F"/>
<path d="M188.74 74.4786C185.8 74.7208 179.69 76.8674 179.602 84.6127C179.515 92.358 180.692 98.2663 184.71 98.5085C188.727 98.7508 197.697 95.1439 198.114 85.0501C198.531 74.9564 191.6 74.2094 188.74 74.4786Z" fill="#FFA8A7"/>
<path d="M185.019 87.6875L185.093 92.2364L182.415 91.4626L185.019 87.6875Z" fill="#F28F8F"/>
<path d="M189.016 87.5669C189.02 87.751 188.969 87.9323 188.87 88.0874C188.771 88.2426 188.628 88.3648 188.459 88.4384C188.29 88.512 188.103 88.5336 187.922 88.5007C187.74 88.4677 187.573 88.3815 187.441 88.2532C187.309 88.1248 187.218 87.9601 187.179 87.7798C187.141 87.5996 187.157 87.4121 187.226 87.2412C187.295 87.0702 187.413 86.9235 187.565 86.8197C187.717 86.7159 187.897 86.6598 188.081 86.6584C188.202 86.6557 188.323 86.6772 188.436 86.7216C188.549 86.766 188.652 86.8323 188.739 86.9169C188.826 87.0014 188.895 87.1024 188.943 87.214C188.99 87.3256 189.015 87.4455 189.016 87.5669Z" fill="#263238"/>
<path d="M182.913 87.0077C182.915 87.1294 182.894 87.2503 182.85 87.3636C182.805 87.4769 182.739 87.5804 182.655 87.6679C182.57 87.7555 182.469 87.8255 182.358 87.8739C182.246 87.9223 182.126 87.9481 182.004 87.9498C181.82 87.9538 181.64 87.9031 181.485 87.8041C181.33 87.7051 181.207 87.5623 181.134 87.3938C181.06 87.2253 181.038 87.0387 181.07 86.8576C181.103 86.6766 181.188 86.5092 181.316 86.3768C181.444 86.2444 181.608 86.1529 181.787 86.1139C181.967 86.0749 182.154 86.0901 182.325 86.1577C182.497 86.2253 182.644 86.3422 182.748 86.4935C182.853 86.6448 182.91 86.8238 182.913 87.0077Z" fill="#263238"/>
<path d="M187.522 93.7108C186.514 93.9682 185.521 94.2827 184.548 94.6529C184.548 94.6529 184.272 93.0715 185.584 92.7082C185.973 92.6259 186.379 92.6808 186.732 92.8635C187.086 93.0463 187.365 93.3457 187.522 93.7108V93.7108Z" fill="#F28F8F"/>
<path d="M182.576 83.583L180.78 84.6799C180.78 84.6799 181.453 85.3932 182.166 84.949C182.364 84.789 182.509 84.5731 182.582 84.3294C182.655 84.0857 182.653 83.8256 182.576 83.583V83.583Z" fill="#263238"/>
<path d="M193.464 87.5397C193.464 87.5397 193.397 90.4064 195.274 90.4064H198.955V84.1953C198.955 77.2239 193.666 69.9429 182.415 75.7031C182.415 75.7031 181.755 85.3998 193.464 87.5397Z" fill="#455A64"/>
<path d="M181.062 90.2515C179.313 90.2515 177.886 89.0403 177.886 87.5598C177.886 86.0794 179.313 84.8682 181.062 84.8682C182.812 84.8682 184.238 86.0794 184.238 87.5598C184.238 89.0403 182.812 90.2515 181.062 90.2515ZM181.062 85.3863C179.616 85.3863 178.438 86.3553 178.438 87.5397C178.438 88.724 179.616 89.6997 181.062 89.6997C182.509 89.6997 183.687 88.7307 183.687 87.5397C183.687 86.3486 182.509 85.3863 181.062 85.3863Z" fill="#172E93"/>
<path d="M188.875 90.2714C186.917 90.2714 185.315 89.0467 185.315 87.5393C185.315 86.032 186.917 84.8477 188.875 84.8477C190.833 84.8477 192.435 86.0724 192.435 87.5393C192.435 89.0063 190.84 90.2714 188.875 90.2714ZM188.875 85.3994C187.24 85.3994 185.901 86.3617 185.901 87.5393C185.901 88.7169 187.246 89.6859 188.875 89.6859C190.503 89.6859 191.849 88.7237 191.849 87.5393C191.849 86.355 190.517 85.3994 188.875 85.3994Z" fill="#172E93"/>
<path d="M185.611 87.25H183.963V87.8354H185.611V87.25Z" fill="#172E93"/>
<path d="M196.398 87.25H192.145V87.8354H196.398V87.25Z" fill="#172E93"/>
<path d="M195.261 90.0293C195.238 89.3191 195.376 88.6128 195.665 87.9634C195.805 87.5591 196.061 87.2048 196.401 86.9441C196.74 86.6835 197.149 86.5279 197.576 86.4965C199.769 86.4628 200.039 88.5758 200.005 89.3227C199.904 91.2944 198.289 93.4074 195.295 93.4545L195.261 90.0293Z" fill="#FFA8A7"/>
<path d="M200.685 102.068C200.685 102.068 195.557 114.329 203.693 117.081L205.476 113.272C205.476 113.272 220.361 99.6387 224.001 96.651C227.642 93.6632 222.972 89.2489 218.456 85.1104C213.941 80.972 209.412 76.9681 209.412 76.9681L207.151 72.9642C206.903 72.527 206.564 72.1474 206.158 71.8505C205.752 71.5536 205.288 71.346 204.796 71.2416C202.427 70.7503 197.966 69.8957 195.557 70.037C192.192 70.2187 197.273 74.411 198.127 74.411C198.897 74.434 199.649 74.6539 200.31 75.0497C200.97 75.4455 201.519 76.004 201.903 76.672C202.925 78.4956 203.107 81.7795 206.371 81.6314L213.934 92.9297L200.685 102.068Z" fill="#FFA8A7"/>
<path d="M213.934 92.9297L216.559 96.2876L212.467 93.9458L213.934 92.9297Z" fill="#F28F8F"/>
<path d="M167.927 117.646L170.262 120.345L168.909 116.213L167.927 117.646Z" fill="#F28F8F"/>
<path opacity="0.2" d="M188.094 120.997C188.094 120.997 194.823 121.542 196.91 115.149C196.91 115.149 196.99 123.298 188.094 120.997Z" fill="black"/>
<path d="M177.227 212.286C177.227 212.286 176.291 209.352 177.738 209.197C179.185 209.042 181.742 209.809 181.998 210.576C182.154 211.083 182.218 211.614 182.186 212.144C182.892 211.905 183.56 211.568 184.171 211.142V210.058C184.171 210.058 185.678 210.206 185.793 211.337C185.907 212.467 185.927 213.847 185.975 215.132C186.062 217.729 186.446 219.466 183.491 220.233C181.385 220.762 179.483 221.905 178.027 223.517C177.018 224.583 175.76 225.383 174.367 225.847C172.973 226.31 171.487 226.423 170.04 226.175C165.592 225.555 165.848 221.801 167.415 220.596C168.922 219.487 170.534 218.527 172.227 217.729L177.227 212.286Z" fill="#172E93"/>
<path d="M175.639 220.583C175.572 220.584 175.506 220.567 175.449 220.532C175.391 220.498 175.345 220.447 175.316 220.387C174.602 219.239 173.466 218.415 172.153 218.093C172.105 218.082 172.06 218.063 172.02 218.035C171.979 218.007 171.945 217.971 171.919 217.93C171.893 217.888 171.875 217.842 171.866 217.794C171.858 217.746 171.859 217.696 171.87 217.649C171.881 217.602 171.9 217.557 171.928 217.518C171.955 217.478 171.991 217.445 172.031 217.419C172.072 217.394 172.117 217.376 172.165 217.368C172.212 217.36 172.261 217.362 172.308 217.373C173.065 217.556 173.779 217.888 174.406 218.35C175.034 218.812 175.562 219.395 175.962 220.064C175.992 220.12 176.008 220.183 176.006 220.246C176.005 220.31 175.987 220.372 175.955 220.426C175.922 220.481 175.876 220.526 175.82 220.557C175.765 220.588 175.702 220.604 175.639 220.603V220.583Z" fill="#FAFAFA"/>
<path d="M177.341 218.766C177.274 218.768 177.208 218.75 177.151 218.716C177.094 218.681 177.048 218.631 177.018 218.571C176.304 217.422 175.169 216.598 173.855 216.276C173.76 216.255 173.677 216.197 173.624 216.115C173.571 216.034 173.553 215.934 173.573 215.839C173.582 215.791 173.601 215.746 173.629 215.706C173.656 215.666 173.691 215.631 173.732 215.605C173.773 215.579 173.818 215.561 173.866 215.552C173.914 215.544 173.963 215.545 174.01 215.556C174.768 215.738 175.482 216.07 176.11 216.532C176.737 216.994 177.266 217.578 177.664 218.248C177.71 218.334 177.72 218.434 177.692 218.527C177.664 218.62 177.601 218.699 177.516 218.746C177.46 218.765 177.4 218.772 177.341 218.766Z" fill="#FAFAFA"/>
<path d="M179.044 216.948C178.977 216.949 178.912 216.93 178.855 216.896C178.798 216.862 178.751 216.812 178.721 216.753C178.003 215.608 176.869 214.785 175.558 214.459C175.464 214.436 175.382 214.378 175.331 214.296C175.279 214.214 175.262 214.116 175.282 214.021C175.291 213.974 175.309 213.929 175.336 213.889C175.362 213.849 175.397 213.814 175.437 213.788C175.477 213.762 175.522 213.744 175.57 213.735C175.617 213.727 175.666 213.728 175.713 213.739C176.471 213.921 177.186 214.253 177.814 214.715C178.443 215.177 178.973 215.761 179.373 216.43C179.418 216.517 179.427 216.618 179.398 216.711C179.369 216.804 179.305 216.882 179.219 216.928C179.162 216.948 179.103 216.955 179.044 216.948V216.948Z" fill="#FAFAFA"/>
<path d="M200.247 217.588C200.192 217.301 200.205 217.005 200.283 216.723C200.361 216.441 200.504 216.181 200.699 215.964C200.895 215.746 201.138 215.577 201.41 215.468C201.681 215.36 201.974 215.316 202.266 215.34C204.621 215.34 206.303 215.408 206.095 217.157V218.409C206.095 218.409 206.095 224.647 206.566 226.666C207.037 228.684 208.194 235.077 203.39 236.012C198.585 236.948 196.836 232.85 197.71 228.967C198.253 226.779 198.582 224.543 198.693 222.292C198.8 220.872 198.255 215.677 199.817 215.34L200.247 217.588Z" fill="#172E93"/>
<path d="M204.648 225.313C204.586 225.312 204.525 225.293 204.473 225.259C203.253 224.674 201.852 224.589 200.57 225.024C200.525 225.041 200.477 225.049 200.429 225.047C200.381 225.046 200.333 225.035 200.29 225.015C200.246 224.995 200.206 224.966 200.174 224.931C200.141 224.895 200.116 224.854 200.099 224.808C200.082 224.763 200.074 224.714 200.075 224.666C200.077 224.617 200.088 224.569 200.108 224.525C200.128 224.48 200.156 224.44 200.192 224.407C200.227 224.374 200.269 224.348 200.315 224.331C201.05 224.078 201.828 223.973 202.604 224.023C203.381 224.072 204.139 224.275 204.837 224.62C204.921 224.669 204.983 224.75 205.008 224.844C205.033 224.939 205.02 225.04 204.971 225.125C204.939 225.182 204.893 225.23 204.836 225.263C204.779 225.297 204.714 225.314 204.648 225.313V225.313Z" fill="#FAFAFA"/>
<path d="M204.904 222.521C204.841 222.518 204.779 222.502 204.722 222.474C203.506 221.884 202.106 221.797 200.826 222.231C200.78 222.256 200.73 222.271 200.678 222.275C200.626 222.279 200.574 222.272 200.526 222.254C200.477 222.236 200.433 222.207 200.396 222.171C200.359 222.134 200.33 222.09 200.312 222.042C200.293 221.993 200.286 221.941 200.289 221.889C200.292 221.838 200.307 221.787 200.331 221.741C200.356 221.695 200.39 221.655 200.431 221.624C200.472 221.592 200.52 221.57 200.57 221.558C201.304 221.302 202.082 221.196 202.857 221.245C203.633 221.295 204.391 221.5 205.086 221.848C205.128 221.871 205.165 221.902 205.195 221.94C205.225 221.978 205.247 222.021 205.26 222.067C205.274 222.114 205.277 222.162 205.272 222.21C205.266 222.258 205.251 222.304 205.227 222.346C205.193 222.4 205.145 222.445 205.089 222.476C205.032 222.507 204.968 222.522 204.904 222.521V222.521Z" fill="#FAFAFA"/>
<path d="M205.16 219.768C205.096 219.765 205.035 219.749 204.978 219.721C203.758 219.137 202.358 219.05 201.075 219.479C201.029 219.505 200.978 219.52 200.926 219.525C200.873 219.529 200.821 219.522 200.771 219.504C200.722 219.486 200.677 219.457 200.64 219.42C200.602 219.383 200.574 219.338 200.555 219.289C200.537 219.239 200.53 219.187 200.534 219.134C200.538 219.082 200.554 219.031 200.579 218.985C200.605 218.939 200.64 218.899 200.683 218.868C200.726 218.837 200.774 218.816 200.826 218.806C201.56 218.549 202.337 218.443 203.113 218.492C203.889 218.542 204.646 218.747 205.341 219.095C205.383 219.119 205.421 219.15 205.451 219.188C205.481 219.225 205.503 219.268 205.516 219.315C205.529 219.361 205.533 219.41 205.527 219.457C205.522 219.505 205.506 219.551 205.483 219.593C205.449 219.648 205.401 219.693 205.344 219.724C205.288 219.754 205.224 219.77 205.16 219.768V219.768Z" fill="#FAFAFA"/>
<path d="M170.545 218.591C169.454 219.187 168.408 219.861 167.415 220.61C165.848 221.814 165.592 225.569 170.04 226.188C171.913 226.496 173.835 226.212 175.538 225.374C175.329 223.919 174.764 222.539 173.893 221.356C173.021 220.172 171.871 219.222 170.545 218.591V218.591Z" fill="white"/>
<path d="M183.492 219.661C181.385 220.19 179.483 221.333 178.027 222.944C177.018 224.01 175.76 224.811 174.367 225.275C172.973 225.738 171.487 225.851 170.04 225.602C167.55 225.259 166.534 223.927 166.399 222.608C166.272 224.088 167.187 225.777 170.04 226.174C171.487 226.423 172.973 226.31 174.367 225.847C175.76 225.383 177.018 224.582 178.027 223.516C179.483 221.905 181.385 220.762 183.492 220.232C185.82 219.634 186.076 218.422 186.035 216.666C185.988 218.113 185.557 219.156 183.492 219.661Z" fill="#37474F"/>
<path d="M206.997 229.122C205.782 227.884 204.129 227.174 202.395 227.145C200.661 227.116 198.986 227.771 197.73 228.967C196.856 232.85 198.605 236.948 203.41 236.013C206.896 235.306 207.252 231.794 206.997 229.122Z" fill="#F5F5F5"/>
<path d="M203.437 235.252C199.574 236.006 197.69 233.503 197.549 230.475C197.387 233.839 199.251 236.827 203.437 236.013C206.539 235.407 207.158 232.54 207.084 230.037C206.983 232.332 206.196 234.707 203.437 235.252Z" fill="#455A64"/>
</svg>
